Recoil (2011) NTSC BR2DVD DD5.1 Eng NL Subs
.
[IMG]http://img802.imageshack.us/img802/1501/81165x.jpg[/IMG]
.
Canada
Actie
93 minuten

geregisseerd door Terry Miles
met Danny Trejo, Serinda Swan en Steve Austin

Ryan Varrett (Steve Austin) is een voormalige politieagent wiens leven wordt verscheurd nadat zijn familie in koelen bloede wordt vermoord. Hierna besluit hij om van het vinden van de daders zijn levenswerk te maken, waarbij hij zijn eigen manier van rechtvaardigheid hanteert. Ondertussen wil een koelbloedige moordenaar (Danny Trejo) wraak nemen op Ryan omwille van de moord op zijn broer.

Vanaf 27 juni te koop op DVD en Blu-Ray
. 
http://www.moviemeter.nl/film/81165
.
PLOT
.
A cop turns vigilante after his family is murdered, exacting vengeance on the killers - and then on all criminals who have slipped through the system. 
. 
http://www.imdb.com/title/tt1839591/
.
INFO
.
NL Veratling QoQ-TEAM
.
Source: 1080p
Video: NTSC @2Passes
Audio: English DD5.1
Subs: Dutch, English
NL Translation: QoQ-TEAM
.
Extra Notes

Before some AH are dumping some post in my box and saying the other from the QoQ Release team is good.
Take a look at the picture below. Even on my TV after burned both versions u see a big difference in the picture Quality.
Both picture made with VLC Player.
1. Release Team:    [IMG]http://img684.imageshack.us/img684/8705/vlcsnap2012022618h21m16.png[/IMG]
2. My Convert:         [IMG]http://img850.imageshack.us/img850/1666/vlcsnap2012022701h03m19.png[/IMG]
Original 1: Maybe if u are blind u find it nice, and upload that for your users and fans as RETAIL.
Picture 2:  Nice convert not Retail but nearly.
Yes i got a lot of request from this won, from users that already downloaded the other, so to all of them, HERE IS THE GOOD VERSION.
80% what i upload is checked.
.
As I mostly say,

Enjoy Quality
.
Info from the first vob
.
Format                                   : MPEG-PS
File size                                : 1 024 MiB
Duration                                 : 22mn 31s
Overall bit rate                         : 6 356 Kbps
Writing library                          : encoded by TMPGEnc Authoring Works 4 Version. 4.0.11.39

Video
ID                                       : 224 (0xE0)
Format                                   : MPEG Video
Format version                           : Version 2
Format profile                           : Main@Main
Format settings, BVOP                    : Yes
Format settings, Matrix                  : Custom
Duration                                 : 22mn 31s
Bit rate                                 : 5 781 Kbps
Maximum bit rate                         : 8 000 Kbps
Width                                    : 720 pixels
Height                                   : 480 pixels
Display aspect ratio                     : 16:9
Frame rate                               : 23.976 fps
Standard                                 : NTSC
Color space                              : YUV
Chroma subsampling                       : 4:2:0
Bit depth                                : 8 bits
Scan type                                : Progressive
Scan order                               : 2:3 Pulldown
Compression mode                         : Lossy
Bits/(Pixel*Frame)                       : 0.698
Stream size                              : 931 MiB (91%)
Writing library                          : TMPGEnc Authoring Works 4 Version. 4.0.11.39
Color primaries                          : BT.470-2 System B, BT.470-2 System G
Transfer characteristics                 : BT.470-2 System B, BT.470-2 System G
Matrix coefficients                      : BT.470-2 System B, BT.470-2 System G

Audio
ID                                       : 189 (0xBD)-128 (0x80)
Format                                   : AC-3
Format/Info                              : Audio Coding 3
Mode extension                           : CM (complete main)
Muxing mode                              : DVD-Video
Duration                                 : 22mn 31s
Bit rate mode                            : Constant
Bit rate                                 : 448 Kbps
Channel(s)                               : 6 channels
Channel positions                        : Front: L C R, Side: L R, LFE
Sampling rate                            : 48.0 KHz
Bit depth                                : 16 bits
Compression mode                         : Lossy
Stream size                              : 72.2 MiB (7%)

Text #1
ID                                       : 189 (0xBD)-32 (0x20)
Format                                   : RLE
Format/Info                              : Run-length encoding
Muxing mode                              : DVD-Video

Text #2
ID                                       : 189 (0xBD)-33 (0x21)
Format                                   : RLE
Format/Info                              : Run-length encoding
Muxing mode                              : DVD-Video


